<svg width="36" height="36" viewBox="0 0 36 36" fill="none" xmlns="http://www.w3.org/2000/svg">
<g clip-path="url(#clip0_0_2630)">
<path d="M0.115476 15.9268C0.191976 15.7438 0.301453 15.5773 0.440952 15.4378L4.93948 10.9392C5.52595 10.3542 6.47398 10.3542 7.06045 10.9392C7.64693 11.5257 7.64693 12.4752 7.06045 13.0602L5.12095 14.9997H13.5C14.3295 14.9997 15 15.6717 15 16.4997C15 17.3277 14.3295 17.9997 13.5 17.9997H5.12102L7.06052 19.9392C7.647 20.5256 7.647 21.4751 7.06052 22.0601C6.76802 22.3541 6.38405 22.4997 6 22.4997C5.61595 22.4997 5.23198 22.3542 4.93948 22.0601L0.440952 17.5616C0.301453 17.4236 0.191976 17.2571 0.115476 17.0726C-0.0359774 16.7068 -0.0359774 16.2928 0.115476 15.9268Z" fill="#BAE005"/>
<path d="M10.5 21C11.3295 21 12 21.672 12 22.5V30H18V5.99998C18 5.33848 18.435 4.75348 19.0695 4.563L24.279 3.00002H12V10.5C12 11.328 11.3295 12 10.5 12C9.67057 12 9.00007 11.328 9.00007 10.5V1.50005C9.00007 0.671977 9.67057 0 10.5 0H34.5C34.554 0 34.602 0.0225 34.6545 0.0284766C34.725 0.036 34.7895 0.0479531 34.857 0.0644766C35.0145 0.104977 35.157 0.1665 35.2905 0.250453C35.3235 0.271477 35.364 0.272953 35.3955 0.29693C35.4075 0.306 35.412 0.322523 35.4241 0.331523C35.5875 0.460477 35.724 0.617977 35.823 0.8055C35.844 0.846 35.8485 0.889523 35.865 0.9315C35.913 1.04548 35.9655 1.1565 35.9835 1.2825C35.991 1.3275 35.9775 1.36948 35.979 1.413C35.9805 1.44302 36 1.47002 36 1.49998V31.5C36 32.2155 35.4945 32.8305 34.794 32.97L19.794 35.97C19.6965 35.9911 19.5975 36.0001 19.5 36.0001C19.1566 36.0001 18.8191 35.8816 18.5491 35.6595C18.2026 35.3746 18.0001 34.95 18.0001 34.5V33H10.5C9.67057 33 9.00007 32.3281 9.00007 31.5001V22.5C9.00007 21.672 9.67057 21 10.5 21Z" fill="white"/>
</g>
<defs>
<clipPath id="clip0_0_2630">
<rect width="36" height="36" fill="white"/>
</clipPath>
</defs>
</svg>
