<svg width="24" height="24" viewBox="0 0 24 24" fill="none" xmlns="http://www.w3.org/2000/svg">
<path d="M12 3.80124C12.6207 2.68453 13.2707 1.81342 14.0569 1.18445C15.044 0.394817 16.2168 0 17.7692 0C19.4889 0 21.0467 0.697837 22.1744 1.82559C23.3022 2.95334 24 4.51108 24 6.23082C24 12.1912 18.1632 18.0281 12.3263 23.8648C12.1461 24.0451 11.8539 24.0451 11.6736 23.8648C5.83682 18.028 0 12.1911 0 6.23082C0 4.51108 0.697834 2.95334 1.82558 1.82559C2.95328 0.697837 4.51102 0 6.23079 0C7.78322 0 8.95598 0.394817 9.94306 1.18445C10.7293 1.81342 11.3792 2.68457 12 3.80124ZM14.6303 1.90205C13.7887 2.57527 13.1041 3.60789 12.4114 4.99332C12.3685 5.07958 12.2983 5.1531 12.2055 5.19952C11.9785 5.31301 11.7024 5.22101 11.5889 4.99396C10.8961 3.60821 10.2114 2.57539 9.36967 1.90205C8.5539 1.24946 7.56309 0.923154 6.23075 0.923154C4.76581 0.923154 3.43889 1.51763 2.47824 2.47829C1.51754 3.43895 0.923109 4.76591 0.923109 6.23082C0.923109 11.7025 6.40924 17.293 12 22.8859C17.5907 17.2931 23.0768 11.7025 23.0768 6.23082C23.0768 4.76587 22.4824 3.43895 21.5217 2.47829C20.5611 1.51759 19.2341 0.923154 17.7692 0.923154C16.4369 0.923114 15.4461 1.24942 14.6303 1.90205Z" fill="white"/>
</svg>
