<svg width="59" height="59" viewBox="0 0 59 59" fill="none" xmlns="http://www.w3.org/2000/svg">
<g clip-path="url(#clip0_60_4)">
<g filter="url(#filter0_d_60_4)">
<mask id="path-1-outside-1_60_4" maskUnits="userSpaceOnUse" x="0" y="0" width="59" height="59" fill="black">
<rect fill="white" width="59" height="59"/>
<path d="M57 29.5C57 14.337 44.663 2 29.5 2C14.337 2 2 14.337 2 29.5C2 37.509 5.444 44.728 10.926 49.758L10.9 49.781L11.792 50.533C11.85 50.582 11.913 50.622 11.971 50.67C12.445 51.063 12.936 51.436 13.436 51.797C13.598 51.914 13.76 52.031 13.925 52.145C14.459 52.513 15.007 52.862 15.567 53.193C15.689 53.265 15.812 53.335 15.935 53.405C16.548 53.754 17.174 54.083 17.815 54.385C17.862 54.407 17.91 54.427 17.957 54.449C20.046 55.42 22.276 56.133 24.608 56.554C24.669 56.565 24.73 56.576 24.792 56.587C25.516 56.712 26.248 56.812 26.989 56.879C27.079 56.887 27.169 56.892 27.26 56.9C27.998 56.961 28.744 57 29.5 57C30.249 57 30.988 56.961 31.722 56.902C31.815 56.894 31.908 56.889 32.001 56.881C32.736 56.814 33.462 56.717 34.179 56.594C34.241 56.583 34.304 56.572 34.366 56.56C36.663 56.148 38.861 55.451 40.923 54.505C40.999 54.47 41.076 54.437 41.152 54.401C41.769 54.111 42.372 53.798 42.963 53.465C43.11 53.382 43.256 53.298 43.402 53.212C43.94 52.895 44.469 52.564 44.983 52.212C45.168 52.086 45.349 51.953 45.532 51.821C45.971 51.505 46.402 51.179 46.821 50.838C46.914 50.763 47.014 50.698 47.105 50.621L48.02 49.857L47.993 49.834C53.523 44.802 57 37.55 57 29.5ZM4 29.5C4 15.439 15.439 4 29.5 4C43.561 4 55 15.439 55 29.5C55 37.077 51.675 43.889 46.411 48.563C46.117 48.36 45.821 48.178 45.518 48.026L37.051 43.793C36.291 43.413 35.819 42.649 35.819 41.8V38.843C36.015 38.601 36.222 38.327 36.436 38.026C37.532 36.478 38.411 34.756 39.052 32.903C40.319 32.301 41.137 31.039 41.137 29.614V26.069C41.137 25.202 40.819 24.361 40.25 23.7V19.033C40.302 18.514 40.486 15.585 38.367 13.169C36.524 11.065 33.541 10 29.5 10C25.459 10 22.476 11.065 20.633 13.168C18.514 15.584 18.698 18.513 18.75 19.032V23.699C18.182 24.36 17.863 25.201 17.863 26.068V29.613C17.863 30.714 18.357 31.741 19.203 32.434C20.013 35.607 21.68 38.009 22.296 38.823V41.717C22.296 42.533 21.851 43.283 21.134 43.675L13.227 47.988C12.975 48.125 12.725 48.285 12.475 48.464C7.276 43.792 4 37.022 4 29.5ZM44.459 50.132C44.109 50.386 43.753 50.632 43.392 50.867C43.226 50.975 43.061 51.083 42.892 51.188C42.42 51.48 41.94 51.758 41.45 52.018C41.342 52.075 41.233 52.129 41.124 52.185C39.998 52.762 38.833 53.258 37.636 53.661C37.594 53.675 37.552 53.69 37.509 53.704C36.882 53.912 36.247 54.097 35.605 54.256C35.603 54.256 35.601 54.257 35.599 54.257C34.951 54.417 34.295 54.55 33.635 54.659C33.617 54.662 33.599 54.666 33.581 54.669C32.96 54.77 32.334 54.843 31.706 54.898C31.595 54.908 31.484 54.915 31.372 54.923C30.751 54.97 30.127 55 29.5 55C28.866 55 28.234 54.969 27.605 54.922C27.496 54.914 27.387 54.907 27.279 54.897C26.645 54.841 26.014 54.766 25.389 54.664C25.361 54.659 25.333 54.654 25.305 54.649C23.983 54.428 22.682 54.103 21.415 53.678C21.376 53.665 21.336 53.651 21.297 53.638C20.668 53.424 20.046 53.187 19.435 52.925C19.431 52.923 19.426 52.921 19.422 52.919C18.844 52.67 18.277 52.394 17.717 52.103C17.644 52.065 17.57 52.029 17.498 51.99C16.987 51.717 16.487 51.422 15.994 51.114C15.848 51.022 15.703 50.929 15.559 50.835C15.105 50.538 14.657 50.229 14.221 49.902C14.176 49.868 14.133 49.832 14.088 49.798C14.12 49.78 14.152 49.762 14.184 49.744L22.091 45.431C23.451 44.689 24.296 43.266 24.296 41.717L24.295 38.115L24.065 37.837C24.043 37.812 21.881 35.182 21.064 31.621L20.973 31.225L20.632 31.004C20.151 30.693 19.863 30.173 19.863 29.612V26.067C19.863 25.602 20.06 25.169 20.42 24.844L20.75 24.546V18.976L20.741 18.845C20.738 18.821 20.443 16.416 22.137 14.485C23.583 12.837 26.061 12 29.5 12C32.926 12 35.396 12.83 36.846 14.466C38.538 16.377 38.261 18.827 38.259 18.847L38.25 24.548L38.58 24.846C38.939 25.17 39.137 25.604 39.137 26.069V29.614C39.137 30.327 38.652 30.974 37.956 31.189L37.459 31.342L37.299 31.837C36.709 33.67 35.869 35.363 34.803 36.869C34.541 37.239 34.286 37.567 34.067 37.818L33.819 38.101V41.8C33.819 43.412 34.715 44.862 36.157 45.582L44.624 49.815C44.678 49.842 44.731 49.87 44.784 49.898C44.677 49.979 44.567 50.054 44.459 50.132Z"/>
</mask>
<path d="M57 29.5C57 14.337 44.663 2 29.5 2C14.337 2 2 14.337 2 29.5C2 37.509 5.444 44.728 10.926 49.758L10.9 49.781L11.792 50.533C11.85 50.582 11.913 50.622 11.971 50.67C12.445 51.063 12.936 51.436 13.436 51.797C13.598 51.914 13.76 52.031 13.925 52.145C14.459 52.513 15.007 52.862 15.567 53.193C15.689 53.265 15.812 53.335 15.935 53.405C16.548 53.754 17.174 54.083 17.815 54.385C17.862 54.407 17.91 54.427 17.957 54.449C20.046 55.42 22.276 56.133 24.608 56.554C24.669 56.565 24.73 56.576 24.792 56.587C25.516 56.712 26.248 56.812 26.989 56.879C27.079 56.887 27.169 56.892 27.26 56.9C27.998 56.961 28.744 57 29.5 57C30.249 57 30.988 56.961 31.722 56.902C31.815 56.894 31.908 56.889 32.001 56.881C32.736 56.814 33.462 56.717 34.179 56.594C34.241 56.583 34.304 56.572 34.366 56.56C36.663 56.148 38.861 55.451 40.923 54.505C40.999 54.47 41.076 54.437 41.152 54.401C41.769 54.111 42.372 53.798 42.963 53.465C43.11 53.382 43.256 53.298 43.402 53.212C43.94 52.895 44.469 52.564 44.983 52.212C45.168 52.086 45.349 51.953 45.532 51.821C45.971 51.505 46.402 51.179 46.821 50.838C46.914 50.763 47.014 50.698 47.105 50.621L48.02 49.857L47.993 49.834C53.523 44.802 57 37.55 57 29.5ZM4 29.5C4 15.439 15.439 4 29.5 4C43.561 4 55 15.439 55 29.5C55 37.077 51.675 43.889 46.411 48.563C46.117 48.36 45.821 48.178 45.518 48.026L37.051 43.793C36.291 43.413 35.819 42.649 35.819 41.8V38.843C36.015 38.601 36.222 38.327 36.436 38.026C37.532 36.478 38.411 34.756 39.052 32.903C40.319 32.301 41.137 31.039 41.137 29.614V26.069C41.137 25.202 40.819 24.361 40.25 23.7V19.033C40.302 18.514 40.486 15.585 38.367 13.169C36.524 11.065 33.541 10 29.5 10C25.459 10 22.476 11.065 20.633 13.168C18.514 15.584 18.698 18.513 18.75 19.032V23.699C18.182 24.36 17.863 25.201 17.863 26.068V29.613C17.863 30.714 18.357 31.741 19.203 32.434C20.013 35.607 21.68 38.009 22.296 38.823V41.717C22.296 42.533 21.851 43.283 21.134 43.675L13.227 47.988C12.975 48.125 12.725 48.285 12.475 48.464C7.276 43.792 4 37.022 4 29.5ZM44.459 50.132C44.109 50.386 43.753 50.632 43.392 50.867C43.226 50.975 43.061 51.083 42.892 51.188C42.42 51.48 41.94 51.758 41.45 52.018C41.342 52.075 41.233 52.129 41.124 52.185C39.998 52.762 38.833 53.258 37.636 53.661C37.594 53.675 37.552 53.69 37.509 53.704C36.882 53.912 36.247 54.097 35.605 54.256C35.603 54.256 35.601 54.257 35.599 54.257C34.951 54.417 34.295 54.55 33.635 54.659C33.617 54.662 33.599 54.666 33.581 54.669C32.96 54.77 32.334 54.843 31.706 54.898C31.595 54.908 31.484 54.915 31.372 54.923C30.751 54.97 30.127 55 29.5 55C28.866 55 28.234 54.969 27.605 54.922C27.496 54.914 27.387 54.907 27.279 54.897C26.645 54.841 26.014 54.766 25.389 54.664C25.361 54.659 25.333 54.654 25.305 54.649C23.983 54.428 22.682 54.103 21.415 53.678C21.376 53.665 21.336 53.651 21.297 53.638C20.668 53.424 20.046 53.187 19.435 52.925C19.431 52.923 19.426 52.921 19.422 52.919C18.844 52.67 18.277 52.394 17.717 52.103C17.644 52.065 17.57 52.029 17.498 51.99C16.987 51.717 16.487 51.422 15.994 51.114C15.848 51.022 15.703 50.929 15.559 50.835C15.105 50.538 14.657 50.229 14.221 49.902C14.176 49.868 14.133 49.832 14.088 49.798C14.12 49.78 14.152 49.762 14.184 49.744L22.091 45.431C23.451 44.689 24.296 43.266 24.296 41.717L24.295 38.115L24.065 37.837C24.043 37.812 21.881 35.182 21.064 31.621L20.973 31.225L20.632 31.004C20.151 30.693 19.863 30.173 19.863 29.612V26.067C19.863 25.602 20.06 25.169 20.42 24.844L20.75 24.546V18.976L20.741 18.845C20.738 18.821 20.443 16.416 22.137 14.485C23.583 12.837 26.061 12 29.5 12C32.926 12 35.396 12.83 36.846 14.466C38.538 16.377 38.261 18.827 38.259 18.847L38.25 24.548L38.58 24.846C38.939 25.17 39.137 25.604 39.137 26.069V29.614C39.137 30.327 38.652 30.974 37.956 31.189L37.459 31.342L37.299 31.837C36.709 33.67 35.869 35.363 34.803 36.869C34.541 37.239 34.286 37.567 34.067 37.818L33.819 38.101V41.8C33.819 43.412 34.715 44.862 36.157 45.582L44.624 49.815C44.678 49.842 44.731 49.87 44.784 49.898C44.677 49.979 44.567 50.054 44.459 50.132Z" fill="white"/>
<path d="M57 29.5C57 14.337 44.663 2 29.5 2C14.337 2 2 14.337 2 29.5C2 37.509 5.444 44.728 10.926 49.758L10.9 49.781L11.792 50.533C11.85 50.582 11.913 50.622 11.971 50.67C12.445 51.063 12.936 51.436 13.436 51.797C13.598 51.914 13.76 52.031 13.925 52.145C14.459 52.513 15.007 52.862 15.567 53.193C15.689 53.265 15.812 53.335 15.935 53.405C16.548 53.754 17.174 54.083 17.815 54.385C17.862 54.407 17.91 54.427 17.957 54.449C20.046 55.42 22.276 56.133 24.608 56.554C24.669 56.565 24.73 56.576 24.792 56.587C25.516 56.712 26.248 56.812 26.989 56.879C27.079 56.887 27.169 56.892 27.26 56.9C27.998 56.961 28.744 57 29.5 57C30.249 57 30.988 56.961 31.722 56.902C31.815 56.894 31.908 56.889 32.001 56.881C32.736 56.814 33.462 56.717 34.179 56.594C34.241 56.583 34.304 56.572 34.366 56.56C36.663 56.148 38.861 55.451 40.923 54.505C40.999 54.47 41.076 54.437 41.152 54.401C41.769 54.111 42.372 53.798 42.963 53.465C43.11 53.382 43.256 53.298 43.402 53.212C43.94 52.895 44.469 52.564 44.983 52.212C45.168 52.086 45.349 51.953 45.532 51.821C45.971 51.505 46.402 51.179 46.821 50.838C46.914 50.763 47.014 50.698 47.105 50.621L48.02 49.857L47.993 49.834C53.523 44.802 57 37.55 57 29.5ZM4 29.5C4 15.439 15.439 4 29.5 4C43.561 4 55 15.439 55 29.5C55 37.077 51.675 43.889 46.411 48.563C46.117 48.36 45.821 48.178 45.518 48.026L37.051 43.793C36.291 43.413 35.819 42.649 35.819 41.8V38.843C36.015 38.601 36.222 38.327 36.436 38.026C37.532 36.478 38.411 34.756 39.052 32.903C40.319 32.301 41.137 31.039 41.137 29.614V26.069C41.137 25.202 40.819 24.361 40.25 23.7V19.033C40.302 18.514 40.486 15.585 38.367 13.169C36.524 11.065 33.541 10 29.5 10C25.459 10 22.476 11.065 20.633 13.168C18.514 15.584 18.698 18.513 18.75 19.032V23.699C18.182 24.36 17.863 25.201 17.863 26.068V29.613C17.863 30.714 18.357 31.741 19.203 32.434C20.013 35.607 21.68 38.009 22.296 38.823V41.717C22.296 42.533 21.851 43.283 21.134 43.675L13.227 47.988C12.975 48.125 12.725 48.285 12.475 48.464C7.276 43.792 4 37.022 4 29.5ZM44.459 50.132C44.109 50.386 43.753 50.632 43.392 50.867C43.226 50.975 43.061 51.083 42.892 51.188C42.42 51.48 41.94 51.758 41.45 52.018C41.342 52.075 41.233 52.129 41.124 52.185C39.998 52.762 38.833 53.258 37.636 53.661C37.594 53.675 37.552 53.69 37.509 53.704C36.882 53.912 36.247 54.097 35.605 54.256C35.603 54.256 35.601 54.257 35.599 54.257C34.951 54.417 34.295 54.55 33.635 54.659C33.617 54.662 33.599 54.666 33.581 54.669C32.96 54.77 32.334 54.843 31.706 54.898C31.595 54.908 31.484 54.915 31.372 54.923C30.751 54.97 30.127 55 29.5 55C28.866 55 28.234 54.969 27.605 54.922C27.496 54.914 27.387 54.907 27.279 54.897C26.645 54.841 26.014 54.766 25.389 54.664C25.361 54.659 25.333 54.654 25.305 54.649C23.983 54.428 22.682 54.103 21.415 53.678C21.376 53.665 21.336 53.651 21.297 53.638C20.668 53.424 20.046 53.187 19.435 52.925C19.431 52.923 19.426 52.921 19.422 52.919C18.844 52.67 18.277 52.394 17.717 52.103C17.644 52.065 17.57 52.029 17.498 51.99C16.987 51.717 16.487 51.422 15.994 51.114C15.848 51.022 15.703 50.929 15.559 50.835C15.105 50.538 14.657 50.229 14.221 49.902C14.176 49.868 14.133 49.832 14.088 49.798C14.12 49.78 14.152 49.762 14.184 49.744L22.091 45.431C23.451 44.689 24.296 43.266 24.296 41.717L24.295 38.115L24.065 37.837C24.043 37.812 21.881 35.182 21.064 31.621L20.973 31.225L20.632 31.004C20.151 30.693 19.863 30.173 19.863 29.612V26.067C19.863 25.602 20.06 25.169 20.42 24.844L20.75 24.546V18.976L20.741 18.845C20.738 18.821 20.443 16.416 22.137 14.485C23.583 12.837 26.061 12 29.5 12C32.926 12 35.396 12.83 36.846 14.466C38.538 16.377 38.261 18.827 38.259 18.847L38.25 24.548L38.58 24.846C38.939 25.17 39.137 25.604 39.137 26.069V29.614C39.137 30.327 38.652 30.974 37.956 31.189L37.459 31.342L37.299 31.837C36.709 33.67 35.869 35.363 34.803 36.869C34.541 37.239 34.286 37.567 34.067 37.818L33.819 38.101V41.8C33.819 43.412 34.715 44.862 36.157 45.582L44.624 49.815C44.678 49.842 44.731 49.87 44.784 49.898C44.677 49.979 44.567 50.054 44.459 50.132Z" stroke="white" stroke-width="2.4" mask="url(#path-1-outside-1_60_4)"/>
</g>
</g>
<defs>
<filter id="filter0_d_60_4" x="-3.2002" y="0.800049" width="65.4004" height="65.3999" filterUnits="userSpaceOnUse" color-interpolation-filters="sRGB">
<feFlood flood-opacity="0" result="BackgroundImageFix"/>
<feColorMatrix in="SourceAlpha" type="matrix" values="0 0 0 0 0 0 0 0 0 0 0 0 0 0 0 0 0 0 127 0" result="hardAlpha"/>
<feOffset dy="4"/>
<feGaussianBlur stdDeviation="2"/>
<feComposite in2="hardAlpha" operator="out"/>
<feColorMatrix type="matrix" values="0 0 0 0 0 0 0 0 0 0 0 0 0 0 0 0 0 0 0.25 0"/>
<feBlend mode="normal" in2="BackgroundImageFix" result="effect1_dropShadow_60_4"/>
<feBlend mode="normal" in="SourceGraphic" in2="effect1_dropShadow_60_4" result="shape"/>
</filter>
<clipPath id="clip0_60_4">
<rect width="59" height="59" fill="white"/>
</clipPath>
</defs>
</svg>
