<!-- icon666.com - MILLIONS OF FREE VECTOR ICONS --><svg viewBox="0 0 56 56" xmlns="http://www.w3.org/2000/svg"><g id="017---Male-User"><path id="Path" d="m24.968 37.327c.7358106.952976 1.8334585 1.5586372 3.032 1.673 1.2042588-.1173191 2.3061951-.7280177 3.044-1.687.2247452-.2699804.5064907-.4868391.825-.635 1.2559765-.5485487 2.3634571-1.3879854 3.231-2.449.44704-1.053382.6815309-2.1847156.69-3.329 0-.5522847.4477153-1 1-1 .2961351.0306029.593288-.0475953.836-.22.1124894-.1486851.1675288-.3329781.155-.519-.0127825-.7459819.1359519-1.4859015.436-2.169.085-.2.2-.44.323-.7l.095-.2.017-.035c.488-.919.387-1.536.153-1.785-.2230034-.1991065-.5502023-.2283714-.805-.072-.2668015.1110168-.567968.1048483-.83-.017-.2660005-.1263035-.4671835-.3579358-.555-.639-.0232854-.0918935-.0390046-.18554-.047-.28v-.016c-.325-2.258-1.189-5.16-2.58-6.177-.759.918-2.409 1.929-5.988 1.929s-5.231-1.013-5.991-1.928c-1.656 1.2-2.44 4.954-2.6 6.337-.0378075.3172049-.2248884.5972574-.5034452.7536367s-.6150623.1702636-.9055548.0373633c-.1215253-.058458-.2541752-.0901712-.389-.093-.1544974-.004677-.303901.0555196-.412.166-.234.249-.335.866.153 1.785l.112.231c.125.257.238.492.324.7.2970481.6829406.4485995 1.4202635.445 2.165-.017544.1838966.0337673.3677621.144.516.2453102.17601.5467503.2557297.847.224.5522847 0 1 .4477153 1 1 .0076502 1.1448605.2393401 2.2771514.682 3.333.8750192 1.071777 1.9929128 1.9195387 3.261 2.473.3093861.1483168.5827294.3622821.801.627z"></path><path id="Shape" d="m28 0c-15.463973 0-28 12.536027-28 28s12.536027 28 28 28 28-12.536027 28-28c-.0176345-15.4566626-12.5433374-27.98236546-28-28zm15.2 47.833c-.0220358.0255452-.0454015.0499122-.07.073-.122.093-.251.172-.375.262-.316.232-.6373333.4563333-.964.673-.2273333.1506667-.4556667.2973333-.685.44-.362.224-.73.44-1.1.645-.269.148-.541.286-.815.424-.257.129-.517.253-.779.374-.3546667.1633333-.7126667.318-1.074.464-.312.126-.6266667.2463333-.944.361-.2573333.092-.5156667.1796667-.775.263-.452.145-.909.281-1.372.4-.2.052-.411.1-.616.143-.394.09-.7906667.1713333-1.19.244-.175.031-.348.066-.524.093-.547.087-1.1.152-1.658.2-.148.013-.3.023-.445.034-.6.043-1.2.072-1.8.072s-1.208-.029-1.8-.072c-.149-.011-.3-.021-.445-.034-.558-.05-1.111-.115-1.658-.2-.176-.027-.349-.062-.524-.093-.4-.072-.7966667-.1533333-1.19-.244-.205-.047-.412-.091-.616-.143-.463-.119-.92-.255-1.372-.4-.26-.0826667-.5183333-.1703333-.775-.263-.318-.114-.6326667-.2343333-.944-.361-.3606667-.146-.7186667-.3006667-1.074-.464-.262-.121-.522-.245-.779-.374-.274-.138-.546-.276-.815-.424-.374-.205-.742-.421-1.1-.645-.23-.142-.4583333-.2886667-.685-.44-.3266667-.2166667-.648-.441-.964-.673-.124-.09-.253-.169-.375-.262-.0245985-.0230878-.0479642-.0474548-.07-.073-9.84247933-7.5161066-12.69393645-21.1079672-6.702-31.946.27636904-.4646279.87196419-.6254896 1.3446697-.3631759.4727055.2623137.65135277.8528179.4033303 1.3331759-5.29472518 9.5676631-3.11585947 21.5409693 5.21 28.63 1.6971574-3.3661433 5.1462174-5.488731 8.916-5.487v-2.238c-1.155271-.6180045-2.1406058-1.5109534-2.869-2.6-.4933042-1.0586964-.7862453-2.1996069-.864-3.365-1.2596861-.2541292-2.1329863-1.4065253-2.037-2.688-.0027484-.4630104-.1018506-.9203788-.291-1.343-.075-.179-.172-.379-.278-.6l-.1-.2c-.6913004-1.0899335-.747736-2.4661229-.148-3.609-.56-2.61-.95-7.017 1.626-10.283 2.131-2.705 5.818-4.074 10.961-4.074s8.819 1.366 10.95 4.061c2.576 3.258 2.191 7.675 1.635 10.291.5994998 1.1500944.540036 2.5326276-.156 3.627l-.09.186c-.106.218-.2.418-.277.594-.1907215.4235407-.2869497.8835251-.282 1.348.0343362.7284887-.228367 1.4397359-.728 1.971-.3590366.3583343-.8133424.6061375-1.309.714-.0790913 1.1681644-.3762107 2.3111921-.876 3.37-.7282073 1.0889926-1.712704 1.9824911-2.867 2.602v2.236c3.7697826-.001731 7.2188426 2.1208567 8.916 5.487 6.5448478-5.5840669 9.4245722-14.3548317 7.463534-22.7316548s-8.4346815-14.95793777-16.7780835-17.05662285-17.1603887.63625069-22.8514505 7.08827765c-.3656125.4142135-.99778643.4536125-1.41199998.088s-.4536125-.9977864-.08800002-1.412c6.2905129-7.13134258 16.0828217-10.07528517 25.2629544-7.59501041 9.1801327 2.48027475 16.1575324 9.95503251 18.0008344 19.28395721 1.8433021 9.3289248-1.7668654 18.8956797-9.3137888 24.6810532z"></path><path id="Path" d="m24 39.216v1.784c0 2.209139 1.790861 4 4 4s4-1.790861 4-4v-1.792c-1.0490541 1.0954983-2.4841633 1.7384272-4 1.792-1.5138945-.0549014-2.9476088-.6943379-4-1.784z"></path><path id="Path" d="m34 42h-.083c0 .023-.013.044-.018.067-.0545474.3011621-.1321081.597698-.232.887-.018.052-.038.1-.057.156-.1062855.2842652-.2339853.5600567-.382.825-.022.038-.046.074-.068.112-.1588719.2721917-.3391049.5313393-.539.775l-.017.019c-.2023766.2403635-.4233952.4643915-.661.67-.027.024-.051.049-.078.071-.2338064.1959326-.4821909.3737799-.743.532-.044.027-.087.054-.132.08-.2615408.1514069-.5343464.2824605-.816.392-.049.019-.1.036-.148.054-.2929408.1069276-.5938789.1905215-.9.25-.04.008-.08.012-.12.019-.6658507.1213377-1.3481493.1213377-2.014 0-.04-.007-.08-.011-.12-.019-.3061211-.0594785-.6070592-.1430724-.9-.25-.05-.018-.1-.035-.148-.054-.2815677-.1097373-.5543584-.2407838-.816-.392-.045-.026-.088-.053-.132-.08-.2608091-.1582201-.5091936-.3360674-.743-.532-.027-.022-.051-.047-.078-.071-.2376048-.2056085-.4586234-.4296365-.661-.67l-.017-.019c-.199902-.2440082-.3801339-.5034887-.539-.776-.022-.037-.046-.073-.067-.11-.1485517-.2651595-.2765922-.5412992-.383-.826-.019-.052-.039-.1-.057-.156-.0998919-.289302-.1774526-.5858379-.232-.887 0-.023-.014-.044-.018-.067h-.081c-3.1576109-.001256-6.0192355 1.8588-7.3 4.745.105.075.209.152.316.225.233.16.47.313.708.463.3193333.2.644.395.974.585.2.111.393.221.592.326.243.128.486.256.734.376.346.1673333.6953333.3256667 1.048.475.254.108.513.206.772.3.206.078.414.153.622.225.3233333.1126667.6493333.2183333.978.317.32.095.641.186.965.267.217.054.436.1.655.151.348.076.6983333.1426667 1.051.2.154.026.306.055.46.078.469.07.941.123 1.416.164.146.012.292.023.438.033.522.035 1.046.06 1.574.06s1.052-.025 1.574-.06c.146-.01.292-.021.438-.033.475-.041.947-.094 1.415-.163.155-.024.308-.053.462-.079.352-.06.702-.1266667 1.05-.2.219-.048.438-.1.655-.151.324-.081.645-.172.965-.267s.655-.2.978-.317c.208-.072.416-.147.622-.225.259-.1.518-.2.772-.3.3526667-.1493333.702-.3076667 1.048-.475.248-.12.491-.248.734-.376.2-.106.3973333-.2146667.592-.326.33-.1866667.6546667-.3816667.974-.585.238-.15.475-.3.708-.463.107-.073.211-.15.316-.225-1.2816458-2.8881909-4.1462137-4.7486309-7.306-4.745z"></path><path id="Path" d="m17.586 22.109c.343-1.847 1.282-5.461 3.53-6.842.7943753-.4924911 1.8341534-.2888098 2.384.467.216.295 1.185 1.266 4.5 1.266s4.284-.971 4.5-1.269c.5482265-.749401 1.5790426-.9540867 2.372-.471 2.208 1.355 3.165 4.913 3.532 6.849.124399.0040363.2483658.0167337.371.038.378-2.27.455-5.5-1.4-7.846-1.726-2.191-4.882-3.301-9.375-3.301s-7.658 1.113-9.39 3.309c-1.851 2.347-1.77 5.574-1.39 7.839.1209372-.0215478.2432377-.0345798.366-.039z"></path></g></svg>